<svg xmlns="http://www.w3.org/2000/svg" xmlns:xlink="http://www.w3.org/1999/xlink" xmlns:lucid="lucid" width="613" height="1142"><g transform="translate(-764 -194)" lucid:page-tab-id="0_0"><path d="M1116 210.7c46.4 0 84 40.3 84 90s-37.6 90-84 90H864c-46.4 0-84-40.3-84-90s37.6-90 84-90z" stroke="#000" stroke-opacity="0" fill="#ff741d"/><use xlink:href="#a" transform="matrix(1,0,0,1,785,215.70817001817193) translate(77.65 88.60000000000001)"/><use xlink:href="#b" transform="matrix(1,0,0,1,785,215.70817001817193) translate(162.5 88.60000000000001)"/><use xlink:href="#c" transform="matrix(1,0,0,1,785,215.70817001817193) translate(224.45000000000002 88.60000000000001)"/><use xlink:href="#d" transform="matrix(1,0,0,1,785,215.70817001817193) translate(244.45000000000002 88.60000000000001)"/><use xlink:href="#e" transform="matrix(1,0,0,1,785,215.70817001817193) translate(274.45000000000005 88.60000000000001)"/><use xlink:href="#f" transform="matrix(1,0,0,1,785,215.70817001817193) translate(308.4 88.60000000000001)"/><path d="M800 320h380v33.7H800z" fill="#fff" fill-opacity="0"/><path d="M806.43 334.02l.32-.3c.9-.83 1.77-1.3 2.57-1.3 1.4 0 2.14 1.22 2.14 3.52 0 2.93-2.5 6.78-5.78 6.78-.55 0-.96-.1-1.4-.43l-.54 2.26c-.06.3-.1.55-.1.8 0 .5.24.98 1.38.98h.36l-.06.27H800l.06-.26c1.4-.07 1.57-.75 1.84-1.8l2.66-10.56c0-.43-.02-.75-.7-.75-.18 0-.46.04-.64.1l-.04-.38 3.6-.54-.42 1.58m-.82 3.05l-1.04 4.55c.3.37.77.48 1.04.48 2.3 0 4-3.94 4-6.5 0-1.42-.63-1.88-1.15-1.88-1.22 0-2.4 1.4-2.86 3.35M815.8 327.17h.6c1 0 .92-1.24 1.62-2.27.5-.75 1.2-1.44 2.4-1.44.8 0 1.28.38 1.28.95 0 .46-.34.65-.66.65-.45 0-.56-.18-.56-.4 0-.23.14-.47.14-.6 0-.08-.05-.13-.24-.13-.8 0-1.43.87-1.77 2.13l-.3 1.12h1.3l-.2.62h-1.22l-1.28 4.9c-.1.44-.24 1.06-.48 1.65-.53 1.34-1.4 2.87-2.8 2.87-.8 0-1.17-.4-1.17-.87 0-.4.22-.8.7-.8.42 0 .58.3.58.54 0 .3-.25.3-.25.5 0 .1.1.15.24.15 1.04 0 1.53-2.54 1.77-3.46l1.4-5.5h-1.25M826.76 332.93l-1.58 2.75v.42c0 .54.1 1.12.38 1.12.14 0 .3-.2.53-.84l.16.08c-.2.83-.58 1.46-1.08 1.46-.4 0-.73-.47-.75-1h-.03c-.38.58-.98 1-1.74 1-.97 0-1.47-.9-1.47-1.84 0-.25 0-.46.07-.75.32-1.33 1.33-2.55 2.56-2.55.88 0 1.3.76 1.3 1.55l.73-1.4h.9m-2.36 1.77c0-.78-.04-1.57-.7-1.57-.65 0-1.55 1.44-1.55 3.25 0 .65.04 1.2.6 1.2.74 0 1.38-1.45 1.6-2.08.04-.22.05-.5.05-.8M838.62 329.06h-9.48V328h9.48v1.06m0 3.22h-9.48v-1.07h9.48v1.08M849.4 330.67h-8.97v-1.07h8.97v1.07M856.77 334.2h-4.44v-.23c1.2-.07 1.53-.4 1.53-1.3v-7.22c0-.55-.15-.8-.5-.8-.15 0-.42.1-.7.2l-.45.17v-.23l2.9-1.47.14.05v9.6c0 .7.32 1 1.53 1v.23M863.1 323.33l-3.66 11.1h-1.1l3.7-11.1h1.07M870.6 332l-.88 2.2h-6.3v-.2l2.88-3.03c1.5-1.6 2.1-2.8 2.1-4.18 0-1.48-.88-2.28-2.25-2.28-1.16 0-1.72.5-2.36 2.1l-.35-.1c.34-1.87 1.37-3.2 3.35-3.2 1.8 0 2.97 1.25 2.97 2.84 0 1.27-.62 2.48-2.06 4l-2.64 2.82h3.76c.68 0 1.02-.17 1.55-1.07M894.14 335.16h-13.4v-1.5h13.4v1.5m0 4.56h-13.4v-1.5h13.4v1.5M921.07 341.58l-1.2 6.8H902.9l8.93-11.6-8.36-11.66h17v5.72h-.68c-.48-3.08-1.35-4.2-4.38-4.2h-7.28l6.6 8.9-7.65 9.87h9.42c2.55 0 3.36-1.54 3.87-3.82h.67M929.9 347.7l-.08.08c-.45.55-1.22 1.58-2.06 1.58-.5 0-.66-.37-.66-.74 0-.2.07-.47.12-.64l.9-3.56c.05-.13.13-.45.13-.68 0-.3-.1-.6-.4-.6-.6 0-1.6 1.38-2.1 2.13-.6.87-1 1.63-1.1 1.97l-.54 2h-1.23l1.53-6.03c0-.28-.05-.5-.48-.5-.16 0-.34.03-.45.04l-.04-.24 2.56-.37-.83 3.05h.05c.08 0 .87-1.13.9-1.18.65-.8 1.6-1.87 2.58-1.87.7 0 .9.47.9 1 0 .4-.1.8-.18 1.13l-.95 3.72v.16c0 .1.05.22.23.22.38 0 .77-.58 1-.85M940.64 347.3h-5.25l-1.94 4.44h-.87l1.92-4.44h-3.36v-1.06H935l.94-2.16h-4.78v-1.06h5.25l1.94-4.44h.87l-1.94 4.44h3.38v1.06h-3.83l-.94 2.16h4.78v1.06M949.94 342.34l-2.24 3.88v.6c0 .77.17 1.6.55 1.6.2 0 .44-.32.74-1.2l.23.1c-.3 1.2-.82 2.07-1.53 2.07-.58 0-1.03-.67-1.06-1.4h-.03c-.54.8-1.37 1.4-2.45 1.4-1.37 0-2.08-1.26-2.08-2.6 0-.35.02-.66.1-1.06.46-1.88 1.9-3.6 3.64-3.6 1.24 0 1.84 1.06 1.84 2.18l1.03-1.98h1.27m-3.33 2.5c0-1.1-.05-2.22-1-2.22-.9 0-2.18 2.04-2.18 4.6 0 .92.07 1.7.87 1.7 1.02 0 1.92-2.06 2.23-2.94.06-.32.08-.7.08-1.14M959.15 346.1l-.27.38c-3.6-2.05-5.56-5.9-5.56-9.77 0-4.2 1.98-7.48 5.63-9.64l.2.36c-3.16 2.7-3.87 4.83-3.87 9.22 0 4.24.68 6.8 3.87 9.47M968.78 342.45h-6.28v-.34c1.68-.1 2.16-.56 2.16-1.82v-10.22c0-.77-.2-1.1-.68-1.1-.23 0-.62.1-1.03.26l-.6.23v-.32l4.06-2.07.22.07v13.6c0 .97.45 1.38 2.16 1.38v.35M990.75 337.44h-5.94v5.94h-1.5v-5.94h-5.94v-1.5h5.94V330h1.5v5.94h5.95v1.5M1002.58 332.5h.85c1.43 0 1.32-1.75 2.3-3.2.7-1.08 1.68-2.06 3.4-2.06 1.15 0 1.8.55 1.8 1.34 0 .64-.47.9-.92.9-.63 0-.8-.24-.8-.55 0-.32.2-.66.2-.85 0-.1-.05-.18-.33-.18-1.14 0-2.02 1.23-2.5 3l-.43 1.6h1.82l-.28.86h-1.73l-1.8 6.97c-.15.6-.34 1.48-.68 2.32-.75 1.9-1.98 4.05-3.98 4.05-1.1 0-1.65-.54-1.65-1.23 0-.54.32-1.1.98-1.1.6 0 .84.4.84.74 0 .44-.36.47-.36.74 0 .14.14.2.35.2 1.48 0 2.16-3.6 2.5-4.9l1.98-7.78h-1.75M1017.1 344.33l-.1.1c-.44.54-1.2 1.57-2.05 1.57-.52 0-.66-.37-.66-.74 0-.2.05-.46.1-.64l.92-3.56c.03-.13.1-.45.1-.67 0-.32-.1-.62-.37-.62-.62 0-1.63 1.38-2.13 2.14-.58.87-1 1.62-1.1 1.96l-.52 2h-1.24l1.52-6.02c0-.3-.04-.52-.48-.52-.16 0-.34.03-.45.05l-.03-.25 2.56-.37-.82 3.04h.05c.1 0 .87-1.13.9-1.18.65-.8 1.62-1.86 2.58-1.86.7 0 .9.46.9 1 0 .4-.1.8-.17 1.12l-.94 3.72c-.02.03-.02.08-.02.16.02.1.06.23.24.23.4 0 .77-.57 1-.85M1020.52 327.42l.28-.36c3.48 2.1 5.55 5.9 5.55 9.76 0 4.22-2 7.45-5.62 9.66l-.2-.37c3.23-2.65 3.86-4.8 3.86-9.2 0-4.26-.58-6.88-3.88-9.48M1043.95 326.74v.43c-.9.18-1.07 1.64-1.07 2.37 0 .68.1 1.37.1 2.05 0 3.38-2.86 4.7-5.86 4.7v3.62c0 1.87.66 2.05 2.34 2.1v.43h-6.96V342c1.95-.08 2.3-.4 2.3-2.38v-3.32c-3 0-5.85-1.32-5.85-4.7 0-.7.1-1.38.1-2.06 0-.73-.2-2.2-1.08-2.37v-.43c2.66 0 3.52 1.7 3.52 4.12 0 2.16.3 4.6 3.04 4.6h.26v-5.8c0-1.6-.92-1.85-2.3-1.85v-.42h6.96v.43c-1.43 0-2.34.2-2.34 1.85v5.8h.25c2.75 0 3.05-2.43 3.05-4.6 0-2.4.86-4.1 3.53-4.1M1051.8 329.7c0 .18-.13.37-.35.5-.4.24-1.34.24-2.5.9 1 .6 2.04.64 2.48.9.22.13.34.32.34.52 0 .32-.23.62-.63.62-.66 0-1.06-1.12-2.3-1.83 0 1.12.46 2.12.46 2.62 0 .34-.32.67-.6.67-.3 0-.62-.34-.62-.68 0-.5.47-1.5.47-2.6-.84.47-1.6 1.5-1.95 1.68-.14.08-.3.13-.43.13-.4 0-.6-.24-.6-.52 0-.2.1-.47.34-.6.44-.26 1.63-.42 2.47-.9-.84-.48-2.07-.64-2.53-.92-.2-.13-.32-.3-.32-.48 0-.34.24-.68.58-.68.1 0 .23.04.36.1.46.28 1.17 1.26 2.1 1.74 0-1.1-.48-2.17-.48-2.67 0-.35.3-.66.6-.66s.62.3.62.65c0 .5-.46 1.53-.46 2.64 1.16-.6 1.6-1.46 2.03-1.72.12-.06.24-.1.35-.1.34 0 .58.34.58.68M1051.96 344.28l-.08.1c-.45.55-1.22 1.58-2.06 1.58-.52 0-.66-.37-.66-.74 0-.2.06-.47.1-.65l.93-3.56c.02-.1.1-.44.1-.66 0-.3-.1-.6-.38-.6-.62 0-1.63 1.37-2.13 2.13-.6.87-1 1.62-1.1 1.96l-.53 2h-1.24l1.53-6.02c0-.28-.05-.5-.5-.5-.15 0-.32.02-.44.04l-.03-.24 2.55-.37-.82 3.04h.05c.08 0 .87-1.13.9-1.17.64-.8 1.6-1.87 2.57-1.87.7 0 .9.47.9 1 0 .4-.1.8-.17 1.12l-.95 3.72c-.02.03-.02.08-.02.16.03.1.08.23.25.23.4 0 .78-.58 1-.86M1071.63 326.74v.43c-.9.18-1.07 1.64-1.07 2.37 0 .68.1 1.37.1 2.05 0 3.38-2.86 4.7-5.86 4.7v3.62c0 1.87.66 2.05 2.34 2.1v.43h-6.96V342c1.95-.08 2.3-.4 2.3-2.38v-3.32c-3 0-5.85-1.32-5.85-4.7 0-.7.1-1.38.1-2.06 0-.73-.2-2.2-1.08-2.37v-.43c2.66 0 3.53 1.7 3.53 4.12 0 2.16.3 4.6 3.05 4.6h.25v-5.8c0-1.6-.9-1.85-2.3-1.85v-.42h6.96v.43c-1.43 0-2.34.2-2.34 1.85v5.8h.25c2.75 0 3.05-2.43 3.05-4.6 0-2.4.86-4.1 3.53-4.1M1079.64 344.33l-.08.1c-.45.54-1.22 1.57-2.06 1.57-.5 0-.66-.37-.66-.74 0-.2.07-.46.1-.64l.93-3.56c.03-.13.1-.45.1-.67 0-.32-.08-.62-.37-.62-.6 0-1.63 1.38-2.13 2.14-.58.87-1 1.62-1.1 1.96l-.52 2h-1.24l1.54-6.02c0-.3-.05-.52-.5-.52-.15 0-.32.03-.44.05l-.03-.25 2.56-.37-.82 3.04h.06c.08 0 .87-1.13.9-1.18.64-.8 1.6-1.86 2.57-1.86.7 0 .9.46.9 1 0 .4-.1.8-.17 1.12l-.95 3.72v.16c0 .1.06.23.23.23.4 0 .78-.57 1-.85M1101.97 337.44h-5.94v5.94h-1.5v-5.94h-5.94v-1.5h5.93V330h1.5v5.94h5.94v1.5M1110.87 337.44h10.77v-1.37h-10.77zM1118.56 332.76h-4.44v-.24c1.2-.07 1.53-.4 1.53-1.3V324c0-.54-.14-.78-.48-.78-.16 0-.44.08-.73.2l-.43.15v-.23l2.9-1.46.14.05v9.6c0 .7.32 1 1.52 1v.23M1119.85 349.45l-.87 2.2h-6.3v-.2l2.87-3.03c1.52-1.6 2.1-2.82 2.1-4.2 0-1.45-.87-2.26-2.24-2.26-1.15 0-1.7.52-2.36 2.1l-.33-.08c.34-1.9 1.37-3.2 3.35-3.2 1.82 0 2.98 1.23 2.98 2.83 0 1.28-.63 2.48-2.06 4l-2.65 2.83h3.76c.68 0 1.02-.18 1.55-1.08M1140.87 326.74v.43c-.88.18-1.07 1.64-1.07 2.37 0 .68.1 1.37.1 2.05 0 3.38-2.85 4.7-5.86 4.7v3.62c0 1.87.66 2.05 2.35 2.1v.43h-6.98V342c1.96-.08 2.3-.4 2.3-2.38v-3.32c-3 0-5.85-1.32-5.85-4.7 0-.7.1-1.38.1-2.06 0-.73-.2-2.2-1.08-2.37v-.43c2.66 0 3.52 1.7 3.52 4.12 0 2.16.3 4.6 3.05 4.6h.25v-5.8c0-1.6-.9-1.85-2.3-1.85v-.42h6.97v.43c-1.44 0-2.36.2-2.36 1.85v5.8h.26c2.75 0 3.05-2.43 3.05-4.6 0-2.4.86-4.1 3.52-4.1M1148.73 329.7c0 .18-.13.37-.36.5-.4.24-1.33.24-2.5.9 1.02.6 2.05.64 2.5.9.2.13.32.32.32.52 0 .32-.23.62-.63.62-.66 0-1.07-1.12-2.3-1.83 0 1.12.46 2.12.46 2.62 0 .34-.32.67-.6.67-.3 0-.62-.34-.62-.68 0-.5.48-1.5.48-2.6-.84.47-1.6 1.5-1.95 1.68-.15.08-.3.13-.44.13-.4 0-.6-.24-.6-.52 0-.2.1-.47.34-.6.43-.26 1.62-.42 2.46-.9-.84-.48-2.08-.64-2.53-.92-.2-.13-.32-.3-.32-.48 0-.34.24-.68.58-.68.1 0 .23.04.35.1.47.28 1.18 1.26 2.1 1.74 0-1.1-.47-2.17-.47-2.67 0-.35.32-.66.62-.66s.6.3.6.65c0 .5-.45 1.53-.45 2.64 1.15-.6 1.6-1.46 2.02-1.72.12-.06.23-.1.35-.1.34 0 .58.34.58.68M1149.9 338.94l-2.25 3.88v.6c0 .77.16 1.6.55 1.6.2 0 .43-.32.74-1.2l.24.1c-.3 1.18-.82 2.07-1.53 2.07-.58 0-1.03-.67-1.06-1.4h-.05c-.54.8-1.38 1.4-2.46 1.4-1.38 0-2.08-1.27-2.08-2.6 0-.36 0-.66.1-1.07.46-1.88 1.9-3.6 3.63-3.6 1.24 0 1.83 1.06 1.83 2.2l1.03-2h1.3m-3.35 2.5c0-1.1-.06-2.22-1-2.22-.9 0-2.18 2.06-2.18 4.62 0 .9.06 1.7.87 1.7 1.03 0 1.93-2.06 2.23-2.94.07-.33.08-.7.08-1.15M1168.67 326.74v.43c-.9.18-1.07 1.64-1.07 2.37 0 .68.1 1.37.1 2.05 0 3.38-2.86 4.7-5.86 4.7v3.62c0 1.87.66 2.05 2.34 2.1v.43h-6.96V342c1.96-.08 2.3-.4 2.3-2.38v-3.32c-3 0-5.85-1.32-5.85-4.7 0-.7.1-1.38.1-2.06 0-.73-.2-2.2-1.08-2.37v-.43c2.65 0 3.52 1.7 3.52 4.12 0 2.16.3 4.6 3.05 4.6h.25v-5.8c0-1.6-.9-1.85-2.3-1.85v-.42h6.96v.43c-1.43 0-2.34.2-2.34 1.85v5.8h.25c2.74 0 3.04-2.43 3.04-4.6 0-2.4.86-4.1 3.53-4.1M1177.68 339l-2.24 3.87v.6c0 .76.16 1.58.55 1.58.18 0 .42-.3.73-1.2l.24.13c-.3 1.17-.82 2.06-1.53 2.06-.58 0-1.03-.66-1.06-1.4h-.03c-.55.8-1.4 1.4-2.46 1.4-1.38 0-2.1-1.26-2.1-2.6 0-.35.03-.65.12-1.06.45-1.88 1.9-3.6 3.62-3.6 1.24 0 1.84 1.06 1.84 2.2l1.03-2h1.28m-3.33 2.5c0-1.1-.07-2.22-1-2.22-.92 0-2.2 2.04-2.2 4.6 0 .92.08 1.7.88 1.7 1.03 0 1.93-2.05 2.24-2.94.06-.32.08-.7.08-1.14"/><path d="M1116 424.56c46.4 0 84 40.3 84 90s-37.6 90-84 90H864c-46.4 0-84-40.3-84-90s37.6-90 84-90z" stroke="#000" stroke-opacity="0" fill="#ff741d"/><use xlink:href="#g" transform="matrix(1,0,0,1,785,429.563913817557) translate(32.89999999999998 88.60000000000001)"/><use xlink:href="#h" transform="matrix(1,0,0,1,785,429.563913817557) translate(79.74999999999997 88.60000000000001)"/><use xlink:href="#i" transform="matrix(1,0,0,1,785,429.563913817557) translate(109.74999999999997 88.60000000000001)"/><use xlink:href="#d" transform="matrix(1,0,0,1,785,429.563913817557) translate(175.34999999999997 88.60000000000001)"/><use xlink:href="#j" transform="matrix(1,0,0,1,785,429.563913817557) translate(205.34999999999997 88.60000000000001)"/><use xlink:href="#k" transform="matrix(1,0,0,1,785,429.563913817557) translate(278.25 88.60000000000001)"/><use xlink:href="#l" transform="matrix(1,0,0,1,785,429.563913817557) translate(296.2 88.60000000000001)"/><path d="M990 391.2v16.98" stroke="#333" fill="none"/><path d="M990.5 391.22h-1v-.5h1z" fill="#333"/><path d="M990 422.95l-4.64-14.27h9.28z" stroke="#333" fill="#333"/><path d="M990 605.06v16.98" stroke="#333" fill="none"/><path d="M990.5 605.08h-1v-.52h1z" fill="#333"/><path d="M990 636.8l-4.64-14.26h9.28z" stroke="#333" fill="#333"/><path d="M780 646.42c0-4.42 3.58-8 8-8h404c4.42 0 8 3.58 8 8v124c0 4.42-3.58 8-8 8H788c-4.42 0-8-3.58-8-8z" stroke="#000" stroke-opacity="0" stroke-width="2" fill="#ff8839"/><use xlink:href="#m" transform="matrix(1,0,0,1,785,643.4196576169421) translate(14.675000000000011 57.8)"/><use xlink:href="#h" transform="matrix(1,0,0,1,785,643.4196576169421) translate(51.625000000000014 57.8)"/><use xlink:href="#j" transform="matrix(1,0,0,1,785,643.4196576169421) translate(81.62500000000001 57.8)"/><use xlink:href="#n" transform="matrix(1,0,0,1,785,643.4196576169421) translate(154.52500000000003 57.8)"/><use xlink:href="#d" transform="matrix(1,0,0,1,785,643.4196576169421) translate(173.47500000000002 57.8)"/><use xlink:href="#o" transform="matrix(1,0,0,1,785,643.4196576169421) translate(203.47500000000002 57.8)"/><use xlink:href="#p" transform="matrix(1,0,0,1,785,643.4196576169421) translate(298.425 57.8)"/><use xlink:href="#q" transform="matrix(1,0,0,1,785,643.4196576169421) translate(374.375 57.8)"/><use xlink:href="#r" transform="matrix(1,0,0,1,785,643.4196576169421) translate(180.525 79.4)"/><path d="M871.37 732.75h237.26v32.04H871.37z" fill="#fff" fill-opacity="0"/><path d="M878.23 761.43l-.27.37c-3.57-2.04-5.5-5.85-5.5-9.7 0-4.17 1.96-7.42 5.57-9.57l.2.36c-3.14 2.68-3.84 4.78-3.84 9.14 0 4.2.67 6.75 3.83 9.4M894.02 743.05l-1.04 4.04h-.36c.04-.4.1-1 .1-1.6 0-1.5-1.3-1.6-2.22-1.6h-2.22l-3 12.14c-.05.2-.1.36-.1.56 0 .48.35.84 1.7.84h.48l-.1.36h-7.42l.1-.36h.4c1.75 0 2.2-.64 2.4-1.4l3-12.15h-2.06c-1.88 0-3.46 1.36-3.87 3.2h-.35l1.04-4.05H894M913.42 752.83h-5.9v5.9h-1.5v-5.9h-5.88v-1.5h5.9v-5.9h1.48v5.9h5.9v1.5M936.7 743.05l-.1.36c-1.46.1-2.38.98-2.97 1.75l-9.96 13h-.54v-12.9c0-1.3-.86-1.84-2.24-1.84l.08-.35h6.64l-.1.36h-.42c-1.46 0-1.58.85-1.58 1.6v8.82l.1.03 6.32-8.27c.43-.54.86-1.2.86-1.67 0-.33-.32-.5-1.18-.5h-.45l.1-.35h5.43M941.93 739.37h.6c1 0 .9-1.23 1.6-2.25.5-.75 1.18-1.44 2.4-1.44.8 0 1.26.4 1.26.94 0 .45-.35.64-.67.64-.44 0-.56-.17-.56-.4 0-.22.15-.46.15-.6 0-.07-.05-.12-.24-.12-.8 0-1.42.87-1.76 2.1l-.3 1.13h1.28l-.2.6h-1.2l-1.27 4.9c-.1.42-.24 1.03-.48 1.62-.53 1.32-1.4 2.83-2.8 2.83-.76 0-1.14-.38-1.14-.86 0-.38.23-.78.7-.78.42 0 .58.28.58.52 0 .3-.25.32-.25.5 0 .1.1.15.24.15 1.04 0 1.5-2.52 1.75-3.43l1.4-5.46h-1.24M952.8 745.08l-1.56 2.72v.42c0 .54.1 1.12.38 1.12.14 0 .3-.2.52-.84l.17.08c-.2.83-.57 1.45-1.06 1.45-.4 0-.73-.46-.75-.98h-.03c-.4.56-.97.98-1.73.98-.96 0-1.46-.88-1.46-1.82 0-.24 0-.45.08-.73.32-1.33 1.32-2.53 2.54-2.53.87 0 1.3.74 1.3 1.53l.7-1.4h.9m-2.33 1.76c0-.76-.05-1.55-.7-1.55-.65 0-1.54 1.43-1.54 3.22 0 .65.05 1.2.6 1.2.73 0 1.37-1.44 1.58-2.06.06-.23.07-.5.07-.8M964.57 741.24h-9.4v-1.06h9.4v1.06m0 3.2h-9.4v-1.06h9.4v1.05M975.27 742.84h-8.9v-1.06h8.9v1.06M982.58 746.35h-4.4v-.24c1.17-.06 1.5-.4 1.5-1.27v-7.17c0-.54-.13-.78-.47-.78-.15 0-.42.08-.7.2l-.44.15V737l2.86-1.45.14.05v9.53c0 .7.32.98 1.52.98v.25M988.87 735.55l-3.64 11.02h-1.1l3.67-11.02h1.07M996.3 744.16l-.87 2.2h-6.24v-.2l2.83-3.02c1.5-1.58 2.08-2.8 2.08-4.15 0-1.47-.86-2.26-2.2-2.26-1.16 0-1.72.5-2.36 2.07l-.33-.07c.34-1.87 1.36-3.18 3.33-3.18 1.8 0 2.95 1.23 2.95 2.8 0 1.28-.62 2.47-2.04 3.97l-2.64 2.8h3.74c.67 0 1-.16 1.53-1.06M940.06 756.34l-1.45 5.5v.18c0 .18.1.27.22.27.16 0 .4-.04 1.02-.87l.2.2c-.5.74-1.37 1.7-2.13 1.7-.52 0-.66-.36-.66-.88 0-.2.1-.54.17-.8h-.05c-1.15 1.47-2.14 1.68-2.77 1.68-1 0-1.42-.88-1.42-1.9 0-2.1 2.1-5.3 4.4-5.3.7 0 1.03.38 1.06.74h.02l.14-.53h1.28m-1.68 1.4c0-.67-.2-1.15-.8-1.15-1.08 0-2.04 1.38-2.58 2.72-.3.72-.45 1.43-.45 1.98 0 .85.5 1.06.93 1.06 1.1 0 2.22-1.52 2.67-3.04.12-.4.23-1.05.23-1.6M945.06 756.18l-.16.6h-1.12l-1.24 5.12c-.02.04-.04.12-.04.17 0 .1.05.2.26.2 0 0 .37-.04.96-.84l.2.18c-.38.5-1.18 1.72-2.12 1.72-.5 0-.62-.4-.62-.83 0-.22.03-.43.08-.6l1.3-5.1h-1.24l.08-.48c1.2-.22 2.17-.8 2.83-2.2h.2l-.5 2.06h1.13M952.55 758.6c0 2.2-1.76 4.75-4.2 4.75-1.6 0-2.16-1.44-2.16-2.6 0-2.05 1.64-4.62 4-4.62 1.28 0 2.35.74 2.35 2.46m-1.3-.5c0-.6-.22-1.5-1.07-1.5-1.3 0-2.7 2.4-2.7 4.56 0 .53.05 1.7.95 1.7 1.7 0 2.82-3.55 2.82-4.76M963.52 761.46l.2.18c-.5.86-1.34 1.66-2.1 1.66-.34 0-.6-.16-.6-.78 0-.1 0-.27.1-.6l.88-3.52c.06-.22.1-.37.1-.64 0-.32-.1-.6-.4-.6-.85 0-2.6 2.88-2.85 3.86l-.54 2.15h-1.25l1.23-4.77c.03-.14.08-.4.08-.64 0-.32-.08-.6-.37-.6-.84 0-2.6 2.88-2.85 3.86l-.56 2.15h-1.25l1.5-5.97c0-.3-.08-.5-.5-.5-.14 0-.32.02-.45.04l-.03-.23 2.5-.37-.7 2.7h.1c1.5-2.28 2.46-2.7 3.07-2.7.6 0 .88.6.88 1.3 0 .27-.05.5-.15.83l-.16.57h.1c.46-.83 1.3-1.82 2.07-2.35.35-.24.65-.35.97-.35.58 0 .86.42.86 1.14 0 .28 0 .6-.1.97l-.98 3.7c-.02.04-.03.13-.03.18 0 .13.08.2.23.2.27 0 .68-.26 1-.86M999.67 742.9l.27-.37c3.45 2.08 5.5 5.85 5.5 9.7 0 4.17-1.98 7.37-5.57 9.57l-.2-.37c3.2-2.64 3.84-4.76 3.84-9.14 0-4.24-.56-6.83-3.83-9.4M1022.88 742.2v.44c-.88.18-1.06 1.63-1.06 2.35 0 .67.1 1.35.1 2.03 0 3.36-2.83 4.67-5.8 4.67v3.6c0 1.84.64 2.02 2.3 2.07v.43h-6.9v-.43c1.95-.1 2.28-.4 2.28-2.37v-3.3c-2.98 0-5.8-1.3-5.8-4.67 0-.68.1-1.36.1-2.04 0-.73-.2-2.18-1.07-2.36v-.43c2.64 0 3.5 1.7 3.5 4.1 0 2.15.3 4.56 3.03 4.56h.24v-5.75c0-1.58-.9-1.82-2.28-1.82v-.43h6.9v.43c-1.4 0-2.3.18-2.3 1.83v5.76h.24c2.73 0 3.02-2.4 3.02-4.56 0-2.4.86-4.1 3.5-4.1M1030.83 759.67l-.08.1c-.44.53-1.2 1.56-2.04 1.56-.5 0-.64-.37-.64-.74 0-.22.06-.47.1-.65l.92-3.53c.03-.12.1-.44.1-.67 0-.3-.1-.6-.37-.6-.6 0-1.6 1.37-2.1 2.12-.58.86-1 1.6-1.1 1.95l-.5 1.98h-1.24l1.5-5.97c0-.3-.03-.5-.47-.5-.17 0-.34.02-.45.03l-.03-.24 2.53-.36-.8 3.02h.04c.07 0 .85-1.12.88-1.17.64-.8 1.6-1.84 2.56-1.84.7 0 .9.46.9 1 0 .4-.1.8-.18 1.1l-.95 3.7v.15c0 .1.06.24.24.24.38 0 .76-.58 1-.85M1054.28 750.57h-13.3v-1.5h13.3v1.5m0 4.52h-13.3v-1.5h13.3v1.5M1071.35 747.84l-.43 2.98h-.34c-.16-1.04-.54-2.37-2.1-2.37-1.85 0-3.14 2.2-3.64 3.77h4.1l-.12.8h-4.18c-.16.46-.16.94-.16 1.5 0 1.45.84 2.28 2.08 2.28 1.3 0 2.46-.76 3.25-1.53l.28.3c-1.2 1.37-2.5 2.48-4.38 2.48-2.12 0-3.16-1.56-3.16-3.44 0-3.2 2.58-6.76 6.08-6.76 1.1 0 1.24.45 1.87.45.26 0 .42-.26.5-.46h.35M1078.8 759.67l-.08.1c-.45.53-1.2 1.56-2.04 1.56-.5 0-.66-.37-.66-.74 0-.22.07-.47.12-.65l.9-3.53c.04-.12.12-.44.12-.67 0-.3-.1-.6-.4-.6-.6 0-1.6 1.37-2.1 2.12-.57.86-.98 1.6-1.08 1.95l-.53 1.98h-1.23l1.52-5.97c0-.3-.05-.5-.48-.5-.16 0-.33.02-.44.03l-.04-.24 2.54-.36-.8 3.02h.04c.08 0 .86-1.12.9-1.17.63-.8 1.6-1.84 2.54-1.84.7 0 .9.46.9 1 0 .4-.1.8-.18 1.1l-.94 3.7c-.02.03-.02.07-.02.15.02.1.07.24.24.24.4 0 .77-.58 1-.85M1097.9 742.2v.44c-.87.18-1.05 1.63-1.05 2.35 0 .67.1 1.35.1 2.03 0 3.36-2.84 4.67-5.82 4.67v3.6c0 1.84.66 2.02 2.33 2.07v.43h-6.9v-.43c1.93-.1 2.27-.4 2.27-2.37v-3.3c-2.98 0-5.8-1.3-5.8-4.67 0-.68.08-1.36.08-2.04 0-.73-.17-2.18-1.05-2.36v-.43c2.65 0 3.5 1.7 3.5 4.1 0 2.15.3 4.56 3.03 4.56h.25v-5.75c0-1.58-.9-1.82-2.28-1.82v-.43h6.9v.43c-1.4 0-2.32.18-2.32 1.83v5.76h.25c2.73 0 3.03-2.4 3.03-4.56 0-2.4.87-4.1 3.5-4.1M1105.86 759.67l-.08.1c-.45.53-1.22 1.56-2.05 1.56-.5 0-.65-.37-.65-.74 0-.22.06-.47.1-.65l.92-3.53c.03-.12.1-.44.1-.67 0-.3-.08-.6-.37-.6-.6 0-1.6 1.37-2.1 2.12-.58.86-1 1.6-1.1 1.95l-.52 1.98h-1.22l1.52-5.97c0-.3-.05-.5-.48-.5-.16 0-.34.02-.45.03l-.03-.24 2.54-.36-.82 3.02h.05c.1 0 .87-1.12.9-1.17.64-.8 1.6-1.84 2.56-1.84.7 0 .9.46.9 1 0 .4-.1.8-.18 1.1l-.94 3.7c-.02.03-.02.07-.02.15.02.1.06.24.24.24.38 0 .77-.58 1-.85"/><path d="M983.6 990.93c3.53-2.65 9.27-2.65 12.8 0l67.2 50.4c3.53 2.65 3.53 6.95 0 9.6l-67.2 50.4c-3.53 2.65-9.27 2.65-12.8 0l-67.2-50.4c-3.53-2.65-3.53-6.95 0-9.6z" stroke="#fe5900" stroke-width="4" fill="#fff"/><path d="M990.5 1107.02h-1v-1.3h1zM990.5 1105.22v.5h-1v-.5zM990 1138.37l-4.12-12.68h8.24z" fill="#333"/><path d="M990 1140l-4.65-14.3h1.05l3.6 11.05 3.6-11.06h1.05z" fill="#333"/><g><use xlink:href="#s" transform="matrix(1,0,0,1,949.4907407407408,1107.018617155726) translate(0 12.444444444444446)"/></g><path d="M780 820.28c0-4.42 3.58-8 8-8h404c4.42 0 8 3.58 8 8v124c0 4.4-3.58 8-8 8H788c-4.42 0-8-3.6-8-8z" stroke="#000" stroke-opacity="0" stroke-width="2" fill="#ff8839"/><g><use xlink:href="#t" transform="matrix(1,0,0,1,785,817.2754014163272) translate(3.700000000000017 57.8)"/><use xlink:href="#h" transform="matrix(1,0,0,1,785,817.2754014163272) translate(78.55000000000003 57.8)"/><use xlink:href="#u" transform="matrix(1,0,0,1,785,817.2754014163272) translate(108.55000000000003 57.8)"/><use xlink:href="#v" transform="matrix(1,0,0,1,785,817.2754014163272) translate(155.50000000000003 57.8)"/><use xlink:href="#w" transform="matrix(1,0,0,1,785,817.2754014163272) translate(232.45000000000002 57.8)"/><use xlink:href="#x" transform="matrix(1,0,0,1,785,817.2754014163272) translate(267.45000000000005 57.8)"/><use xlink:href="#d" transform="matrix(1,0,0,1,785,817.2754014163272) translate(343.35 57.8)"/><use xlink:href="#y" transform="matrix(1,0,0,1,785,817.2754014163272) translate(373.35 57.8)"/><use xlink:href="#z" transform="matrix(1,0,0,1,785,817.2754014163272) translate(176.525 79.4)"/></g><path d="M990 778.92v16.97" stroke="#333" fill="none"/><path d="M990.5 778.93h-1v-.5h1z" fill="#333"/><path d="M990 810.66l-4.64-14.27h9.28z" stroke="#333" fill="#333"/><path d="M990 952.78v17.88" stroke="#333" fill="none"/><path d="M990.5 952.8h-1v-.52h1z" fill="#333"/><path d="M990 985.43l-4.64-14.27h9.28z" stroke="#333" fill="#333"/><path d="M1300.5 1034.16l-.42 3.22-1.24 3-2 2.6-2.6 2-3 1.23-3.2.43h-219.4v-1h219.33l3-.4 2.77-1.14 2.4-1.84 1.82-2.4 1.14-2.75.4-3V857.08h1zm-9.26-519.68l3 1.25 2.6 2 2 2.6 1.24 3 .42 3.2v308.95h-1V526.6l-.4-3.02-1.14-2.76-1.83-2.38-2.4-1.84-2.75-1.14-3-.4h-71.6v-1h71.65z" fill="#333"/><path d="M1068.66 1046.63h-.54l.04-1h.5zM1215.88 519.2l-14.26-4.64 14.26-4.63z" fill="#333"/><path d="M1216.38 519.9l-16.38-5.34 16.38-5.32zm-13.14-5.34l12.14 3.95v-7.88z" fill="#333"/><g><use xlink:href="#A" transform="matrix(1,0,0,1,1232.075,835.4764001466846) translate(0.0049999999999954525 14.4)"/><use xlink:href="#B" transform="matrix(1,0,0,1,1232.075,835.4764001466846) translate(31.904999999999998 14.4)"/><use xlink:href="#C" transform="matrix(1,0,0,1,1232.075,835.4764001466846) translate(61.905 14.4)"/></g><path d="M1116 1140c46.4 0 84 40.28 84 90 0 49.7-37.6 90-84 90H864c-46.4 0-84-40.3-84-90 0-49.72 37.6-90 84-90z" stroke="#000" stroke-opacity="0" fill="#ff741d"/><g><use xlink:href="#D" transform="matrix(1,0,0,1,785,1144.9868890150974) translate(157.625 88.60000000000001)"/><use xlink:href="#E" transform="matrix(1,0,0,1,785,1144.9868890150974) translate(201.47500000000002 88.60000000000001)"/></g><defs><path fill="#fff" d="M125-24c46 0 70-25 89-51l25 16C214-24 183 4 123 4 8 4-5-146 60-208c32-50 158-61 191-5 5 7 9 14 11 22l-32 10c-9-28-33-43-69-43-74 0-108 51-108 125 0 46 24 75 72 75" id="F"/><path fill="#fff" d="M165-48c-4 18 1 34 23 27l-3 20c-29 8-62 0-52-35h-2C116-14 99 4 63 4 30 4 8-16 8-49c0-68 71-67 138-67 10-26 0-56-31-54-26 1-42 9-47 31l-32-5c8-67 160-71 144 15-5 28-9 54-15 81zM42-50c3 52 80 24 89-6 7-12 7-24 11-38-47 1-103-4-100 44" id="G"/><path fill="#fff" d="M6 0l50-261h32L37 0H6" id="H"/><path fill="#fff" d="M44-68c0 29 11 47 38 47 30 0 42-19 51-41l28 9C148-21 126 4 82 4 31 4 10-29 12-85c3-77 74-140 146-93 12 8 15 23 18 40l-31 5c-1-22-13-36-36-36-52 0-65 49-65 101" id="I"/><path fill="#fff" d="M67 3c-93-2-31-127-26-193h32L48-50c-3 39 53 32 70 12 30-34 30-101 43-152h32L157 0h-30c1-10 6-24 4-33-14 20-29 37-64 36" id="J"/><path fill="#fff" d="M51-54c-9 22 5 41 31 30L79-1C43 14 10-4 19-52l22-115H19l5-23h22l19-43h21l-9 43h35l-4 23H73" id="K"/><path fill="#fff" d="M111-194c62-3 86 47 72 106H45c-7 38 6 69 45 68 27-1 43-14 53-32l24 11C152-15 129 4 87 4 38 3 12-23 12-71c0-70 32-119 99-123zm44 81c14-66-71-72-95-28-4 8-8 17-11 28h106" id="L"/><g id="a"><use transform="matrix(0.05,0,0,0.05,0,0)" xlink:href="#F"/><use transform="matrix(0.05,0,0,0.05,12.950000000000001,0)" xlink:href="#G"/><use transform="matrix(0.05,0,0,0.05,22.950000000000003,0)" xlink:href="#H"/><use transform="matrix(0.05,0,0,0.05,26.900000000000002,0)" xlink:href="#I"/><use transform="matrix(0.05,0,0,0.05,35.900000000000006,0)" xlink:href="#J"/><use transform="matrix(0.05,0,0,0.05,45.900000000000006,0)" xlink:href="#H"/><use transform="matrix(0.05,0,0,0.05,49.85000000000001,0)" xlink:href="#G"/><use transform="matrix(0.05,0,0,0.05,59.85,0)" xlink:href="#K"/><use transform="matrix(0.05,0,0,0.05,64.85000000000001,0)" xlink:href="#L"/></g><path fill="#fff" d="M133-28C103 26-5 8 13-77c13-62 24-115 90-117 29-1 46 15 56 35l19-102h32L160 0h-30zM45-64c-2 27 10 43 35 43 54-1 69-50 69-103 0-29-15-46-42-46-53-1-58 58-62 106" id="M"/><path fill="#fff" d="M67-158c22-48 132-52 116 29L158 0h-32l25-140c3-38-53-32-70-12C52-117 51-52 38 0H6l36-190h30" id="N"/><path fill="#fff" d="M55-144c13 50 104 24 104 88C159 21 15 23 1-39l26-10c6 40 102 42 102-4-13-50-104-23-104-87 0-71 143-71 148-8l-29 4c-5-35-85-37-89 0" id="O"/><path fill="#fff" d="M50-231l6-30h32l-6 30H50zM6 0l37-190h31L37 0H6" id="P"/><path fill="#fff" d="M198-190L69 30C53 58 25 83-20 72c4-11-1-27 19-22 33-1 43-29 59-52L20-190h32L79-34l84-156h35" id="Q"/><g id="b"><use transform="matrix(0.05,0,0,0.05,0,0)" xlink:href="#M"/><use transform="matrix(0.05,0,0,0.05,10,0)" xlink:href="#L"/><use transform="matrix(0.05,0,0,0.05,20,0)" xlink:href="#N"/><use transform="matrix(0.05,0,0,0.05,30,0)" xlink:href="#O"/><use transform="matrix(0.05,0,0,0.05,39,0)" xlink:href="#P"/><use transform="matrix(0.05,0,0,0.05,42.95,0)" xlink:href="#K"/><use transform="matrix(0.05,0,0,0.05,47.95,0)" xlink:href="#Q"/></g><path fill="#fff" d="M30-147c31-64 166-65 159 27C183-49 158 1 86 4 9 8 1-88 30-147zM88-20c53 0 68-48 68-100 0-31-11-51-44-50-52 1-68 46-68 97 0 32 13 53 44 53" id="R"/><path fill="#fff" d="M76-167L44 0H12l33-167H18l4-23h27c3-47 25-81 82-69l-4 24c-35-8-44 15-46 45h37l-5 23H76" id="S"/><g id="c"><use transform="matrix(0.05,0,0,0.05,0,0)" xlink:href="#R"/><use transform="matrix(0.05,0,0,0.05,10,0)" xlink:href="#S"/></g><path fill="#fff" d="M67-158c15-20 31-36 64-36 94 0 33 127 27 194h-32l25-140c3-38-53-32-70-12C52-117 51-51 37 0H6l51-261h31" id="T"/><g id="d"><use transform="matrix(0.05,0,0,0.05,0,0)" xlink:href="#K"/><use transform="matrix(0.05,0,0,0.05,5,0)" xlink:href="#T"/><use transform="matrix(0.05,0,0,0.05,15,0)" xlink:href="#L"/></g><g id="e"><use transform="matrix(0.05,0,0,0.05,0,0)" xlink:href="#T"/><use transform="matrix(0.05,0,0,0.05,10,0)" xlink:href="#G"/><use transform="matrix(0.05,0,0,0.05,20,0)" xlink:href="#H"/><use transform="matrix(0.05,0,0,0.05,23.95,0)" xlink:href="#S"/></g><g id="f"><use transform="matrix(0.05,0,0,0.05,0,0)" xlink:href="#P"/><use transform="matrix(0.05,0,0,0.05,3.95,0)" xlink:href="#R"/><use transform="matrix(0.05,0,0,0.05,13.949999999999998,0)" xlink:href="#N"/></g><path fill="#fff" d="M87-220l-18 92h140l-5 28H64L45 0H11l48-248h178l-5 28H87" id="U"/><path fill="#fff" d="M66-151c12-25 30-51 66-40l-6 26C45-176 58-65 38 0H6l36-190h30" id="V"/><path fill="#fff" d="M248-111c6-24 9-61-24-58-72 9-57 108-77 169h-31l26-142c3-37-50-30-64-10C52-115 50-51 37 0H6l36-190h30c-1 10-6 24-4 32 13-43 101-52 105 5 13-22 29-41 61-41 90 0 28 129 23 194h-31" id="W"/><g id="g"><use transform="matrix(0.05,0,0,0.05,0,0)" xlink:href="#U"/><use transform="matrix(0.05,0,0,0.05,10.950000000000001,0)" xlink:href="#V"/><use transform="matrix(0.05,0,0,0.05,16.900000000000002,0)" xlink:href="#R"/><use transform="matrix(0.05,0,0,0.05,26.900000000000002,0)" xlink:href="#W"/></g><g id="h"><use transform="matrix(0.05,0,0,0.05,0,0)" xlink:href="#K"/><use transform="matrix(0.05,0,0,0.05,5,0)" xlink:href="#T"/><use transform="matrix(0.05,0,0,0.05,15,0)" xlink:href="#L"/></g><path fill="#fff" d="M58-38C53-5 46 26 28 46H7C19 32 27 18 32 0H17l7-38h34" id="X"/><g id="i"><use transform="matrix(0.05,0,0,0.05,0,0)" xlink:href="#M"/><use transform="matrix(0.05,0,0,0.05,10,0)" xlink:href="#L"/><use transform="matrix(0.05,0,0,0.05,20,0)" xlink:href="#N"/><use transform="matrix(0.05,0,0,0.05,30,0)" xlink:href="#O"/><use transform="matrix(0.05,0,0,0.05,39,0)" xlink:href="#P"/><use transform="matrix(0.05,0,0,0.05,42.95,0)" xlink:href="#K"/><use transform="matrix(0.05,0,0,0.05,47.95,0)" xlink:href="#Q"/><use transform="matrix(0.05,0,0,0.05,55.6,0)" xlink:href="#X"/></g><path fill="#fff" d="M67-162c32-53 139-36 121 50C175-51 163 2 97 4 68 4 52-11 42-31 38 6 28 39 22 75H-9l50-265h29c-1 10 0 20-3 28zm89 36c0-26-10-43-35-43-54 0-67 50-69 103-1 29 14 45 42 46 53 0 62-58 62-106" id="Y"/><g id="j"><use transform="matrix(0.05,0,0,0.05,0,0)" xlink:href="#Y"/><use transform="matrix(0.05,0,0,0.05,10,0)" xlink:href="#R"/><use transform="matrix(0.05,0,0,0.05,20,0)" xlink:href="#K"/><use transform="matrix(0.05,0,0,0.05,25,0)" xlink:href="#L"/><use transform="matrix(0.05,0,0,0.05,35,0)" xlink:href="#N"/><use transform="matrix(0.05,0,0,0.05,45,0)" xlink:href="#K"/><use transform="matrix(0.05,0,0,0.05,50,0)" xlink:href="#P"/><use transform="matrix(0.05,0,0,0.05,53.95,0)" xlink:href="#G"/><use transform="matrix(0.05,0,0,0.05,63.95,0)" xlink:href="#H"/></g><g id="k"><use transform="matrix(0.05,0,0,0.05,0,0)" xlink:href="#P"/><use transform="matrix(0.05,0,0,0.05,3.95,0)" xlink:href="#O"/></g><g id="l"><use transform="matrix(0.05,0,0,0.05,0,0)" xlink:href="#I"/><use transform="matrix(0.05,0,0,0.05,9,0)" xlink:href="#G"/><use transform="matrix(0.05,0,0,0.05,19,0)" xlink:href="#H"/><use transform="matrix(0.05,0,0,0.05,22.95,0)" xlink:href="#I"/><use transform="matrix(0.05,0,0,0.05,31.950000000000003,0)" xlink:href="#J"/><use transform="matrix(0.05,0,0,0.05,41.95,0)" xlink:href="#H"/><use transform="matrix(0.05,0,0,0.05,45.900000000000006,0)" xlink:href="#G"/><use transform="matrix(0.05,0,0,0.05,55.900000000000006,0)" xlink:href="#K"/><use transform="matrix(0.05,0,0,0.05,60.900000000000006,0)" xlink:href="#L"/><use transform="matrix(0.05,0,0,0.05,70.9,0)" xlink:href="#M"/></g><path fill="#fff" d="M62-99C39-31 123 0 170-40s38-139 58-208h34C234-144 253 4 115 4 49 4 18-43 31-112l26-136h34" id="Z"/><g id="m"><use transform="matrix(0.05,0,0,0.05,0,0)" xlink:href="#Z"/><use transform="matrix(0.05,0,0,0.05,12.950000000000001,0)" xlink:href="#O"/><use transform="matrix(0.05,0,0,0.05,21.950000000000003,0)" xlink:href="#L"/></g><g id="n"><use transform="matrix(0.05,0,0,0.05,0,0)" xlink:href="#P"/><use transform="matrix(0.05,0,0,0.05,3.95,0)" xlink:href="#N"/></g><path fill="#fff" d="M180 0L97-118 63-96 45 0H11l48-248h34L69-126c44-43 94-81 141-122h43L121-137 219 0h-39" id="aa"/><path fill="#fff" d="M18-82l6-28h88l-6 28H18" id="ab"/><path fill="#fff" d="M194-120c59 52 2 134-86 124-53-6-90-18-98-63l31-7c8 30 29 43 70 43 46 0 84-17 71-62-32-43-135-20-137-98-3-89 178-90 191-16l-30 9c-8-48-127-53-127 5 0 53 81 35 115 65" id="ac"/><g id="o"><use transform="matrix(0.05,0,0,0.05,0,0)" xlink:href="#aa"/><use transform="matrix(0.05,0,0,0.05,12,0)" xlink:href="#T"/><use transform="matrix(0.05,0,0,0.05,22,0)" xlink:href="#R"/><use transform="matrix(0.05,0,0,0.05,32,0)" xlink:href="#N"/><use transform="matrix(0.05,0,0,0.05,42,0)" xlink:href="#ab"/><use transform="matrix(0.05,0,0,0.05,47.95,0)" xlink:href="#ac"/><use transform="matrix(0.05,0,0,0.05,59.95,0)" xlink:href="#T"/><use transform="matrix(0.05,0,0,0.05,69.95,0)" xlink:href="#G"/><use transform="matrix(0.05,0,0,0.05,79.95,0)" xlink:href="#N"/></g><path fill="#fff" d="M11 0l48-248h184l-5 28H87l-15 79h140l-5 27H67L50-27h158l-5 27H11" id="ad"/><path fill="#fff" d="M133-28C103 26-5 8 13-77c13-62 24-115 90-117 29-1 46 15 56 35 2-12 6-24 8-34h31L144 75h-31zM45-64c-2 27 10 43 35 43 54-1 69-50 69-103 0-29-15-46-42-46-53-1-58 58-62 106" id="ae"/><g id="p"><use transform="matrix(0.05,0,0,0.05,0,0)" xlink:href="#ad"/><use transform="matrix(0.05,0,0,0.05,12,0)" xlink:href="#ae"/><use transform="matrix(0.05,0,0,0.05,22,0)" xlink:href="#J"/><use transform="matrix(0.05,0,0,0.05,32,0)" xlink:href="#G"/><use transform="matrix(0.05,0,0,0.05,42,0)" xlink:href="#K"/><use transform="matrix(0.05,0,0,0.05,47,0)" xlink:href="#P"/><use transform="matrix(0.05,0,0,0.05,50.95,0)" xlink:href="#R"/><use transform="matrix(0.05,0,0,0.05,60.95,0)" xlink:href="#N"/></g><g id="q"><use transform="matrix(0.05,0,0,0.05,0,0)" xlink:href="#S"/><use transform="matrix(0.05,0,0,0.05,5,0)" xlink:href="#R"/><use transform="matrix(0.05,0,0,0.05,15,0)" xlink:href="#V"/></g><g id="r"><use transform="matrix(0.05,0,0,0.05,0,0)" xlink:href="#G"/><use transform="matrix(0.05,0,0,0.05,10,0)" xlink:href="#K"/><use transform="matrix(0.05,0,0,0.05,15,0)" xlink:href="#R"/><use transform="matrix(0.05,0,0,0.05,25,0)" xlink:href="#W"/><use transform="matrix(0.05,0,0,0.05,39.95,0)" xlink:href="#O"/></g><path fill="#333" d="M67-125c0 53 21 87 73 88 37 1 54-22 65-47l45 17C233-25 199 4 140 4 58 4 20-42 15-125 8-235 124-281 211-232c18 10 29 29 36 50l-46 12c-8-25-30-41-62-41-52 0-71 34-72 86" id="af"/><path fill="#333" d="M110-194c64 0 96 36 96 99 0 64-35 99-97 99-61 0-95-36-95-99 0-62 34-99 96-99zm-1 164c35 0 45-28 45-65 0-40-10-65-43-65-34 0-45 26-45 65 0 36 10 65 43 65" id="ag"/><path fill="#333" d="M135-194c87-1 58 113 63 194h-50c-7-57 23-157-34-157-59 0-34 97-39 157H25l-1-190h47c2 12-1 28 3 38 12-26 28-41 61-42" id="ah"/><path fill="#333" d="M128 0H69L1-190h53L99-40l48-150h52" id="ai"/><path fill="#333" d="M185-48c-13 30-37 53-82 52C43 2 14-33 14-96s30-98 90-98c62 0 83 45 84 108H66c0 31 8 55 39 56 18 0 30-7 34-22zm-45-69c5-46-57-63-70-21-2 6-4 13-4 21h74" id="aj"/><path fill="#333" d="M135-150c-39-12-60 13-60 57V0H25l-1-190h47c2 13-1 29 3 40 6-28 27-53 61-41v41" id="ak"/><path fill="#333" d="M195-6C206 82 75 100 31 46c-4-6-6-13-8-21l49-6c3 16 16 24 34 25 40 0 42-37 40-79-11 22-30 35-61 35-53 0-70-43-70-97 0-56 18-96 73-97 30 0 46 14 59 34l2-30h47zm-90-29c32 0 41-27 41-63 0-35-9-62-40-62-32 0-39 29-40 63 0 36 9 62 39 62" id="al"/><path fill="#333" d="M88-194c31-1 46 15 58 34l-1-101h50l1 261h-48c-2-10 0-23-3-31C134-8 116 4 84 4 32 4 16-41 15-95c0-56 19-97 73-99zm17 164c33 0 40-30 41-66 1-37-9-64-41-64s-38 30-39 65c0 43 13 65 39 65" id="am"/><g id="s"><use transform="matrix(0.04320987654320988,0,0,0.04320987654320988,0,0)" xlink:href="#af"/><use transform="matrix(0.04320987654320988,0,0,0.04320987654320988,11.19135802469136,0)" xlink:href="#ag"/><use transform="matrix(0.04320987654320988,0,0,0.04320987654320988,20.654320987654323,0)" xlink:href="#ah"/><use transform="matrix(0.04320987654320988,0,0,0.04320987654320988,30.11728395061729,0)" xlink:href="#ai"/><use transform="matrix(0.04320987654320988,0,0,0.04320987654320988,38.75925925925926,0)" xlink:href="#aj"/><use transform="matrix(0.04320987654320988,0,0,0.04320987654320988,47.40123456790123,0)" xlink:href="#ak"/><use transform="matrix(0.04320987654320988,0,0,0.04320987654320988,53.45061728395062,0)" xlink:href="#al"/><use transform="matrix(0.04320987654320988,0,0,0.04320987654320988,62.91358024691359,0)" xlink:href="#aj"/><use transform="matrix(0.04320987654320988,0,0,0.04320987654320988,71.55555555555556,0)" xlink:href="#am"/></g><path fill="#fff" d="M248-139C247-14 144 9 11 0l48-248c105-6 190 8 189 109zm-34 0c1-70-52-87-126-82L50-27c98 7 163-21 164-112" id="an"/><path fill="#fff" d="M89 0H52L20-190h33L74-25l89-165h34" id="ao"/><g id="t"><use transform="matrix(0.05,0,0,0.05,0,0)" xlink:href="#an"/><use transform="matrix(0.05,0,0,0.05,12.950000000000001,0)" xlink:href="#P"/><use transform="matrix(0.05,0,0,0.05,16.900000000000002,0)" xlink:href="#O"/><use transform="matrix(0.05,0,0,0.05,25.900000000000002,0)" xlink:href="#I"/><use transform="matrix(0.05,0,0,0.05,34.900000000000006,0)" xlink:href="#R"/><use transform="matrix(0.05,0,0,0.05,44.900000000000006,0)" xlink:href="#ao"/><use transform="matrix(0.05,0,0,0.05,53.900000000000006,0)" xlink:href="#L"/><use transform="matrix(0.05,0,0,0.05,63.900000000000006,0)" xlink:href="#V"/></g><path fill="#fff" d="M188 0h-37l-8-164L71 0H34L18-190h31l8 164 75-164h34l8 164 74-164h31" id="ap"/><g id="u"><use transform="matrix(0.05,0,0,0.05,0,0)" xlink:href="#ap"/><use transform="matrix(0.05,0,0,0.05,12.950000000000001,0)" xlink:href="#G"/><use transform="matrix(0.05,0,0,0.05,22.950000000000003,0)" xlink:href="#ao"/><use transform="matrix(0.05,0,0,0.05,31.950000000000003,0)" xlink:href="#L"/></g><g id="v"><use transform="matrix(0.05,0,0,0.05,0,0)" xlink:href="#S"/><use transform="matrix(0.05,0,0,0.05,5,0)" xlink:href="#J"/><use transform="matrix(0.05,0,0,0.05,15,0)" xlink:href="#N"/><use transform="matrix(0.05,0,0,0.05,25,0)" xlink:href="#I"/><use transform="matrix(0.05,0,0,0.05,34,0)" xlink:href="#K"/><use transform="matrix(0.05,0,0,0.05,39,0)" xlink:href="#P"/><use transform="matrix(0.05,0,0,0.05,42.95,0)" xlink:href="#R"/><use transform="matrix(0.05,0,0,0.05,52.95,0)" xlink:href="#N"/><use transform="matrix(0.05,0,0,0.05,62.95,0)" xlink:href="#O"/></g><g id="w"><use transform="matrix(0.05,0,0,0.05,0,0)" xlink:href="#G"/><use transform="matrix(0.05,0,0,0.05,10,0)" xlink:href="#N"/><use transform="matrix(0.05,0,0,0.05,20,0)" xlink:href="#M"/></g><g id="x"><use transform="matrix(0.05,0,0,0.05,0,0)" xlink:href="#I"/><use transform="matrix(0.05,0,0,0.05,9,0)" xlink:href="#G"/><use transform="matrix(0.05,0,0,0.05,19,0)" xlink:href="#H"/><use transform="matrix(0.05,0,0,0.05,22.95,0)" xlink:href="#I"/><use transform="matrix(0.05,0,0,0.05,31.950000000000003,0)" xlink:href="#J"/><use transform="matrix(0.05,0,0,0.05,41.95,0)" xlink:href="#H"/><use transform="matrix(0.05,0,0,0.05,45.900000000000006,0)" xlink:href="#G"/><use transform="matrix(0.05,0,0,0.05,55.900000000000006,0)" xlink:href="#K"/><use transform="matrix(0.05,0,0,0.05,60.900000000000006,0)" xlink:href="#L"/></g><g id="y"><use transform="matrix(0.05,0,0,0.05,0,0)" xlink:href="#N"/><use transform="matrix(0.05,0,0,0.05,10,0)" xlink:href="#L"/><use transform="matrix(0.05,0,0,0.05,20,0)" xlink:href="#ap"/></g><g id="z"><use transform="matrix(0.05,0,0,0.05,0,0)" xlink:href="#M"/><use transform="matrix(0.05,0,0,0.05,10,0)" xlink:href="#L"/><use transform="matrix(0.05,0,0,0.05,20,0)" xlink:href="#N"/><use transform="matrix(0.05,0,0,0.05,30,0)" xlink:href="#O"/><use transform="matrix(0.05,0,0,0.05,39,0)" xlink:href="#P"/><use transform="matrix(0.05,0,0,0.05,42.95,0)" xlink:href="#K"/><use transform="matrix(0.05,0,0,0.05,47.95,0)" xlink:href="#Q"/></g><path fill="#333" d="M30-248c118-7 216 8 213 122C240-48 200 0 122 0H30v-248zM63-27c89 8 146-16 146-99s-60-101-146-95v194" id="aq"/><path fill="#333" d="M24-231v-30h32v30H24zM24 0v-190h32V0H24" id="ar"/><path fill="#333" d="M85-194c31 0 48 13 60 33l-1-100h32l1 261h-30c-2-10 0-23-3-31C134-8 116 4 85 4 32 4 16-35 15-94c0-66 23-100 70-100zm9 24c-40 0-46 34-46 75 0 40 6 74 45 74 42 0 51-32 51-76 0-42-9-74-50-73" id="as"/><g id="A"><use transform="matrix(0.05,0,0,0.05,0,0)" xlink:href="#aq"/><use transform="matrix(0.05,0,0,0.05,12.950000000000001,0)" xlink:href="#ar"/><use transform="matrix(0.05,0,0,0.05,16.900000000000002,0)" xlink:href="#as"/></g><path fill="#333" d="M117-194c89-4 53 116 60 194h-32v-121c0-31-8-49-39-48C34-167 62-67 57 0H25l-1-190h30c1 10-1 24 2 32 11-22 29-35 61-36" id="at"/><path fill="#333" d="M100-194c62-1 85 37 85 99 1 63-27 99-86 99S16-35 15-95c0-66 28-99 85-99zM99-20c44 1 53-31 53-75 0-43-8-75-51-75s-53 32-53 75 10 74 51 75" id="au"/><path fill="#333" d="M59-47c-2 24 18 29 38 22v24C64 9 27 4 27-40v-127H5v-23h24l9-43h21v43h35v23H59v120" id="av"/><g id="B"><use transform="matrix(0.05,0,0,0.05,0,0)" xlink:href="#at"/><use transform="matrix(0.05,0,0,0.05,10,0)" xlink:href="#au"/><use transform="matrix(0.05,0,0,0.05,20,0)" xlink:href="#av"/></g><path fill="#333" d="M96-169c-40 0-48 33-48 73s9 75 48 75c24 0 41-14 43-38l32 2c-6 37-31 61-74 61-59 0-76-41-82-99-10-93 101-131 147-64 4 7 5 14 7 22l-32 3c-4-21-16-35-41-35" id="aw"/><path fill="#333" d="M108 0H70L1-190h34L89-25l56-165h34" id="ax"/><path fill="#333" d="M100-194c63 0 86 42 84 106H49c0 40 14 67 53 68 26 1 43-12 49-29l28 8c-11 28-37 45-77 45C44 4 14-33 15-96c1-61 26-98 85-98zm52 81c6-60-76-77-97-28-3 7-6 17-6 28h103" id="ay"/><path fill="#333" d="M114-163C36-179 61-72 57 0H25l-1-190h30c1 12-1 29 2 39 6-27 23-49 58-41v29" id="az"/><path fill="#333" d="M177-190C167-65 218 103 67 71c-23-6-38-20-44-43l32-5c15 47 100 32 89-28v-30C133-14 115 1 83 1 29 1 15-40 15-95c0-56 16-97 71-98 29-1 48 16 59 35 1-10 0-23 2-32h30zM94-22c36 0 50-32 50-73 0-42-14-75-50-75-39 0-46 34-46 75s6 73 46 73" id="aA"/><g id="C"><use transform="matrix(0.05,0,0,0.05,0,0)" xlink:href="#aw"/><use transform="matrix(0.05,0,0,0.05,9,0)" xlink:href="#au"/><use transform="matrix(0.05,0,0,0.05,19,0)" xlink:href="#at"/><use transform="matrix(0.05,0,0,0.05,29,0)" xlink:href="#ax"/><use transform="matrix(0.05,0,0,0.05,38,0)" xlink:href="#ay"/><use transform="matrix(0.05,0,0,0.05,48,0)" xlink:href="#az"/><use transform="matrix(0.05,0,0,0.05,53.95,0)" xlink:href="#aA"/><use transform="matrix(0.05,0,0,0.05,63.95,0)" xlink:href="#ay"/></g><g id="D"><use transform="matrix(0.05,0,0,0.05,0,0)" xlink:href="#U"/><use transform="matrix(0.05,0,0,0.05,10.950000000000001,0)" xlink:href="#P"/><use transform="matrix(0.05,0,0,0.05,14.9,0)" xlink:href="#N"/><use transform="matrix(0.05,0,0,0.05,24.900000000000002,0)" xlink:href="#G"/><use transform="matrix(0.05,0,0,0.05,34.900000000000006,0)" xlink:href="#H"/></g><path fill="#fff" d="M249-183c0 48-29 72-75 77L221 0h-36l-43-103H65L45 0H11l48-248c83 2 190-17 190 65zm-34 3c0-55-74-39-127-41l-18 92c63-1 145 13 145-51" id="aB"/><g id="E"><use transform="matrix(0.05,0,0,0.05,0,0)" xlink:href="#aB"/><use transform="matrix(0.05,0,0,0.05,12.950000000000001,0)" xlink:href="#L"/><use transform="matrix(0.05,0,0,0.05,22.950000000000003,0)" xlink:href="#O"/><use transform="matrix(0.05,0,0,0.05,31.950000000000003,0)" xlink:href="#J"/><use transform="matrix(0.05,0,0,0.05,41.95,0)" xlink:href="#H"/><use transform="matrix(0.05,0,0,0.05,45.900000000000006,0)" xlink:href="#K"/></g></defs></g></svg>